# xmcd
#
# Track frame offsets: 
#        150
#        11942
#        22669
#        34402
#        47371
#        60735
#        71875
#        85134
#        97406
#        111192
#        122497
#        134457
#        146602
#        159694
#        174219
#        186561
#        197413
#        212811
#        227307
#        239410
#        253614
#        266320
#        278663
#        293886
#        305065
#
# Disc length: 4201 seconds
#
# Revision: 2
# Processed by: cddbd v1.5.2PL0 Copyright (c) Steve Scherf et al.
# Submitted via: ExactAudioCopyFreeDBPlugin 1.0
#
DISCID=6d106719
DTITLE=Frankie Laine - Answer Me
DYEAR=2007
DGENRE=Country
TTITLE0=Mule Train
TTITLE1=Hey, Good Lookin
TTITLE2=The Ruby and the Pearl
TTITLE3=Black and Blue
TTITLE4=Music, Maestro, Please
TTITLE5=The Gandy Dancers' Ball
TTITLE6=Cool Water
TTITLE7=The Cry of the Wild Goose
TTITLE8=Way Down Yonder in New Orleans
TTITLE9=How Lovely Cooks the Meat
TTITLE10=Answer Me
TTITLE11=Hawk-Eye
TTITLE12=The Little Boy and the Old Man
TTITLE13=Satan Wears A Satin Gown
TTITLE14=The Rock of Gibraltar
TTITLE15=Tonight You Belong To Me
TTITLE16=The Kid's Last Fight
TTITLE17=Wonderful, Wasn't It
TTITLE18=If I Were A Bell
TTITLE19=The Girl In the Wood
TTITLE20=Gambella (Gamblin' Lady)
TTITLE21=Ramblin' Man
TTITLE22=Swamp Girl
TTITLE23=My Friend
TTITLE24=Tell Me A Story
EXTD=
EXTT0=
EXTT1=
EXTT2=
EXTT3=
EXTT4=
EXTT5=
EXTT6=
EXTT7=
EXTT8=
EXTT9=
EXTT10=
EXTT11=
EXTT12=
EXTT13=
EXTT14=
EXTT15=
EXTT16=
EXTT17=
EXTT18=
EXTT19=
EXTT20=
EXTT21=
EXTT22=
EXTT23=
EXTT24=
PLAYORDER=
